HIERARCHY
ROOT Hips
{
	OFFSET	0.00	0.00	0.00
	CHANNELS 6 Xposition Yposition Zposition Zrotation Xrotation Yrotation
	JOINT Spine
	{
		OFFSET	 0.00	0.01	 0.00
		CHANNELS 3 Zrotation Xrotation Yrotation
		JOINT Spine1
		{
			OFFSET	 0.00	 2.45913012437421	 0.00
			CHANNELS 3 Zrotation Xrotation Yrotation
            JOINT Neck
            {
                OFFSET	 0.00	 2.48462964506057	 0.00
                CHANNELS 3 Zrotation Xrotation Yrotation
                JOINT Head
                {
                    OFFSET	 0.00	 0.927524780924562	 0.00
                    CHANNELS 3 Zrotation Xrotation Yrotation
                    End Site 
                    {
                        OFFSET	 0.00	 1.14999962169752	 0.00
                    }
                }
            }
			JOINT LeftShoulder
			{
				OFFSET	 0.00	 2.48462964506057	 0.00
				CHANNELS 3 Zrotation Xrotation Yrotation
				JOINT LeftUpArm
				{
					OFFSET	 0.00	 1.24881979654096	 0.00
					CHANNELS 3 Zrotation Xrotation Yrotation
					JOINT LeftForeArm
					{
						OFFSET	 0.00	2.59758046908119	 0.00
						CHANNELS 3 Zrotation Xrotation Yrotation
						JOINT LeftHand
						{
							OFFSET	 0.00	2.45542024364365	 0.00
							CHANNELS 3 Zrotation Xrotation Yrotation
							JOINT LeftHandThumb 
							{
								OFFSET	 0.00	0.00	 0.00
								CHANNELS 3 Zrotation Xrotation Yrotation
								End Site
								{
									OFFSET	 0.00	0.00	1.00000003353624
								}
							}
							JOINT L_Wrist_End 
							{
								OFFSET	 0.00	0.99999967115358	 0.00
								CHANNELS 3 Zrotation Xrotation Yrotation
								End Site 
								{
									OFFSET	 0.00	 0.00	 0.00
								}
							}
						}
					}
				}
			}
			JOINT RightShoulder
			{
				OFFSET	 0.00	 2.48462964506057	 0.00
				CHANNELS 3 Zrotation Xrotation Yrotation
				JOINT RightUpArm
				{
					OFFSET	 0.00	 1.24881979654096	 0.00
					CHANNELS 3 Zrotation Xrotation Yrotation
					JOINT RightForeArm
					{
						OFFSET	 0.00	2.59758046908119	 0.00
						CHANNELS 3 Zrotation Xrotation Yrotation
						JOINT RightHand
						{
							OFFSET	 0.00	2.45542024364365	 0.00
							CHANNELS 3 Zrotation Xrotation Yrotation
							JOINT RightHandThumb 
							{
								OFFSET	 0.00	0.00	 0.00
								CHANNELS 3 Zrotation Xrotation Yrotation
								End Site
								{
									OFFSET	 0.00	0.00	1.00000003353624
								}
							}
							JOINT R_Wrist_End 
							{
								OFFSET	 0.00	0.99999967115358	 0.00
								CHANNELS 3 Zrotation Xrotation Yrotation
								End Site 
								{
									OFFSET	 0.00	 0.00	 0.00
								}
							}
						}
					}
				}
			}
		}
	}
	JOINT LeftUpLeg
	{
		OFFSET	 1.2719394002717	 0.00	 0.00
		CHANNELS 3 Zrotation Xrotation Yrotation
		JOINT LeftLowLeg
		{
			OFFSET	 0.00	-4.3429100912261	 0.00
			CHANNELS 3 Zrotation Xrotation Yrotation
			JOINT LeftFoot
			{
				OFFSET	 0.00	-4.48767017425826	 0.00
				CHANNELS 3 Zrotation Xrotation Yrotation
				JOINT LeftToeBase
                {
                    OFFSET	 0.00	0.00	 1.51507020887566
                    CHANNELS 3 Zrotation Xrotation Yrotation
                    End Site 
                    {
                        OFFSET	 0.00	0.00	 0.75000010571191
                    }
                }
			}
		}
	}
	JOINT RightUpLeg
	{
		OFFSET	 -1.2719393604653	 0.00	 0.00
		CHANNELS 3 Zrotation Xrotation Yrotation
		JOINT RightLowLeg
		{
			OFFSET	 0.00	-4.3429100912261	 0.00
			CHANNELS 3 Zrotation Xrotation Yrotation
			JOINT RightFoot
			{
				OFFSET	 0.00	-4.48767017425826	 0.00
				CHANNELS 3 Zrotation Xrotation Yrotation
				JOINT RightToeBase
                {
                    OFFSET	 0.00	0.00	 1.51507020887566
                    CHANNELS 3 Zrotation Xrotation Yrotation
                    End Site 
                    {
                        OFFSET	 0.00	0.00	 0.749999965609858
                    }
                }   
			}
		}
	}
}
MOTION 
Frames:	10 
Frame Time: 0.02 
  -0.9454609680175782 1.953699951171875 7.07833984375 -40.1759 76.6303 43.0266 -9.04034 2.66039 -35.1898 21.8157 40.3282 19.4582 -12.186 48.1417 -25.2016 49.9828 -47.3505 28.9852 -120.3687 7.60356 -10.3956 4.13375 45.1102 6.52162 0.0 119.529 0.0 3.33306 8.53035 42.3273 0.0 0.0 0.0 0.0 0.0 0.0 105.1753 2.05916 -2.98307 25.8755 17.6581 -15.7806 0.0 106.957 0.0 -9.56352 2.62333 27.6405 0.0 0.0 0.0 0.0 0.0 0.0 32.8041 -57.9997 31.5371 0.0 90.1773 0.0 1.64781 -5.366501 9.64161 0.0 -13.52106 0.0 -4.44312 -56.1233 -18.7443 0.0 84.7524 0.0 16.2063 -0.87489986 -12.055 0.0 -17.24868 0.0 
  -0.9451540374755859 1.9524000549316407 7.0799798583984375 -40.3014 76.6866 43.1201 -8.92073 2.59869 -35.1157 21.5486 40.203 19.4824 -12.1885 47.6427 -25.1053 50.281 -47.5717 29.768 -120.1701 7.49246 -10.6408 3.96845 44.7157 7.14117 0.0 118.948 0.0 4.43747 9.41106 38.1493 0.0 0.0 0.0 0.0 0.0 0.0 105.3476 1.97247 -2.80107 25.9193 17.5702 -16.3264 0.0 106.861 0.0 -10.4363 2.55443 27.1593 0.0 0.0 0.0 0.0 0.0 0.0 32.8547 -57.9987 31.6276 0.0 90.1535 0.0 1.65084 -5.394699 9.6287 0.0 -13.52592 0.0 -4.59656 -56.1305 -18.9586 0.0 84.7332 0.0 16.1048 -0.86660004 -11.951 0.0 -17.28045 0.0 
  -0.9437889862060547 1.9512199401855468 7.081710205078125 -40.5199 76.7556 43.3023 -8.70474 2.42203 -34.9509 21.1702 40.196 19.432 -12.574 46.9008 -24.5192 50.6728 -47.8953 30.6108 -119.9715 7.29493 -10.9323 3.97657 44.4824 7.72994 0.0 118.549 0.0 7.28019 12.0307 35.2451 0.0 0.0 0.0 0.0 0.0 0.0 105.5175 1.96935 -2.69236 25.9747 17.4801 -16.3676 0.0 106.809 0.0 -10.0605 2.59763 26.831 0.0 0.0 0.0 0.0 0.0 0.0 32.9281 -58.015 31.753 0.0 90.1271 0.0 1.66792 -5.4302006 9.62721 0.0 -13.47227 0.0 -4.7966 -56.147 -19.2446 0.0 84.703 0.0 15.9786 -0.8508997 -11.8262 0.0 -17.32852 0.0 
  -0.9417929840087891 1.9500700378417968 7.082689819335937 -40.6478 76.8649 43.4184 -8.51319 2.32955 -34.7872 20.9372 40.1014 19.6091 -13.0804 46.1714 -23.8865 51.1304 -48.3945 31.5993 -119.923996 7.20756 -10.9889 4.13943 44.3887 8.27234 0.0 118.569 0.0 12.1658 15.424 34.376 0.0 0.0 0.0 0.0 0.0 0.0 105.6564 1.82505 -2.44033 25.9995 17.1284 -16.6117 0.0 106.89 0.0 -10.295 2.60567 26.3864 0.0 0.0 0.0 0.0 0.0 0.0 32.9268 -58.0587 31.8483 0.0 90.0915 0.0 1.69639 -5.4512005 9.6421 0.0 -13.46061 0.0 -5.06492 -56.1929 -19.5441 0.0 84.7041 0.0 15.8947 -0.8704004 -11.6856 0.0 -17.36154 0.0 
  -0.940791015625 1.9485499572753906 7.08551025390625 -40.5597 76.7925 43.3597 -8.42832 2.55487 -34.8149 21.2085 40.0623 19.908 -14.3215 45.4228 -22.5186 51.5002 -49.1235 32.4386 -120.1749 7.17442 -10.6941 4.43558 44.3922 8.18731 0.0 118.756 0.0 17.0312 18.8864 33.9656 0.0 0.0 0.0 0.0 0.0 0.0 105.5559 1.57572 -2.62438 25.8922 16.9181 -16.5141 0.0 106.869 0.0 -10.2508 3.0001 25.572 0.0 0.0 0.0 0.0 0.0 0.0 32.8832 -57.9789 31.781 0.0 90.0678 0.0 1.72987 -5.4633007 9.61592 0.0 -13.43851 0.0 -5.24615 -56.0308 -19.8653 0.0 84.6453 0.0 15.7716 -0.85999966 -11.5664 0.0 -17.35531 0.0 
  -0.9377790069580079 1.9488800048828125 7.0852099609375 -40.6069 76.8814 43.4566 -8.21638 2.51325 -34.6501 21.1022 40.0787 20.1099 -15.4621 44.3597 -21.1034 52.0097 -49.84 33.7491 -120.2349 7.0722 -10.6665 4.55348 44.7781 7.86349 0.0 118.76 0.0 21.5097 21.4569 32.7474 0.0 0.0 0.0 0.0 0.0 0.0 105.6812 1.35769 -2.52274 25.7568 16.7154 -16.5318 0.0 106.925 0.0 -10.423 2.75955 24.7338 0.0 0.0 0.0 0.0 0.0 0.0 32.7846 -58.0641 31.7658 0.0 90.0378 0.0 1.7682 -5.4538 9.63993 0.0 -13.43497 0.0 -5.6052 -56.0703 -20.263 0.0 84.6797 0.0 15.6382 -0.8305998 -11.497 0.0 -17.44434 0.0 
  -0.9374099731445312 1.9489999389648438 7.084630126953125 -40.2302 76.8387 43.1157 -8.07616 2.54958 -34.4227 21.0355 40.2872 20.2747 -16.8681 42.9865 -19.2877 52.5131 -50.5696 34.836 -120.201996 7.30852 -10.5625 4.90754 44.549 7.38459 0.0 119.324 0.0 26.441 19.5211 29.6321 0.0 0.0 0.0 0.0 0.0 0.0 105.664 1.1538 -2.48952 25.765 16.6525 -16.3207 0.0 106.94 0.0 -10.5351 2.37075 23.9975 0.0 0.0 0.0 0.0 0.0 0.0 32.6773 -57.9885 31.6992 0.0 90.026 0.0 1.78354 -5.4505997 9.61575 0.0 -13.43042 0.0 -5.76182 -55.9622 -20.4468 0.0 84.695 0.0 15.5831 -0.8544998 -11.4576 0.0 -17.46767 0.0 
  -0.9332859802246094 1.9423599243164062 7.082020263671875 -41.9897 77.4506 45.2549 -7.79206 1.6512 -34.3579 20.8779 40.317 20.0452 -18.4234 41.8217 -17.3379 53.3176 -51.3615 36.1969 -120.139404 7.06936 -10.4843 4.69492 45.6588 6.53658 0.0 118.216 0.0 31.0033 17.289 24.0871 0.0 0.0 0.0 0.0 0.0 0.0 105.7698 1.13141 -2.45057 25.8242 16.4182 -16.0628 0.0 106.896 0.0 -10.4081 2.00177 23.593 0.0 0.0 0.0 0.0 0.0 0.0 32.5381 -58.8492 31.7309 0.0 90.0172 0.0 1.79204 -5.4093 9.61276 0.0 -13.44076 0.0 -6.84468 -56.5503 -21.5806 0.0 84.8985 0.0 15.5614 -1.1287003 -11.2716 0.0 -17.38772 0.0 
  -0.9327780151367188 1.9435499572753907 7.080269775390625 -42.0701 77.5022 45.4711 -7.43747 1.55532 -34.1573 20.6181 40.2796 20.2135 -20.1083 40.8295 -15.3012 54.4609 -52.2273 37.7964 -119.9823 6.96752 -10.4841 4.02041 46.6278 5.24896 0.0 116.847 0.0 32.9456 12.6464 17.481 0.0 0.0 0.0 0.0 0.0 0.0 106.0274 1.08381 -2.54388 25.6522 16.2438 -15.8857 0.0 106.818 0.0 -10.5401 1.74108 21.2664 0.0 0.0 0.0 0.0 0.0 0.0 32.4194 -58.9892 31.6347 0.0 90.0094 0.0 1.81006 -5.3579006 9.59407 0.0 -13.44893 0.0 -7.13176 -56.5692 -21.9154 0.0 84.9313 0.0 15.5226 -1.2001991 -11.2554 0.0 -17.419239 0.0 
  -0.9337909698486329 1.9441900634765625 7.0798101806640625 -41.4374 77.4648 44.9939 -7.19256 1.59376 -33.9591 20.449 40.3927 20.333 -21.629 39.7185 -13.508 55.2194 -53.1061 39.3656 -119.9611 6.81302 -10.4179 3.44899 47.7449 3.3309 0.0 114.978 0.0 32.7272 9.76763 16.7357 0.0 0.0 0.0 0.0 0.0 0.0 106.164 0.940443 -2.09293 25.7927 16.0653 -16.1445 0.0 106.693 0.0 -10.8123 1.50444 20.8241 0.0 0.0 0.0 0.0 0.0 0.0 32.1168 -58.9472 31.3864 0.0 89.9599 0.0 1.84749 -5.2994995 9.56502 0.0 -13.47743 0.0 -7.36367 -56.4261 -22.1313 0.0 84.9662 0.0 15.4935 -1.2908001 -11.2826 0.0 -17.36692 0.0 
